<svg xmlns="http://www.w3.org/2000/svg" version="1.1" xmlns:xlink="http://www.w3.org/1999/xlink" xmlns:svgjs="http://svgjs.dev/svgjs" width="2000" height="242" viewBox="0 0 2000 242"><g transform="matrix(1,0,0,1,-1.2121212121212466,0.42710360713479645)"><svg viewBox="0 0 396 48" data-background-color="#fafafa" preserveAspectRatio="xMidYMid meet" height="242" width="2000" xmlns="http://www.w3.org/2000/svg" xmlns:xlink="http://www.w3.org/1999/xlink"><g id="tight-bounds" transform="matrix(1,0,0,1,0.2400000000000091,-0.08471476505152964)"><svg viewBox="0 0 395.52 48.169429530103066" height="48.169429530103066" width="395.52"><g><svg viewBox="0 0 395.52 48.169429530103066" height="48.169429530103066" width="395.52"><g><svg viewBox="0 0 395.52 48.169429530103066" height="48.169429530103066" width="395.52"><g id="textblocktransform"><svg viewBox="0 0 395.52 48.169429530103066" height="48.169429530103066" width="395.52" id="textblock"><g><svg viewBox="0 0 395.52 25.980288580458982" height="25.980288580458982" width="395.52"><g transform="matrix(1,0,0,1,0,0)"><svg width="395.52" viewBox="4.49 -35.01 532.95 35.01" height="25.980288580458982" data-palette-color="#424242"><path d="M27.29-18.26L27.29-18.26Q28.39-17.92 29.3-17.29 30.2-16.65 30.83-15.66 31.47-14.67 31.81-13.33 32.15-11.99 32.15-10.25L32.15-10.25 32.15-8.5Q32.15 0 23.66 0L23.66 0 4.49 0 4.49-35.01 22.66-35.01Q31.15-35.01 31.15-26.49L31.15-26.49 31.15-25.85Q31.15-22.9 30.21-21.03 29.27-19.17 27.29-18.26ZM23.51-15.26L9.4-15.26 9.4-4.91 23.51-4.91Q25.49-4.91 26.37-5.83 27.25-6.76 27.25-8.74L27.25-8.74 27.25-11.45Q27.25-13.45 26.37-14.36 25.49-15.26 23.51-15.26L23.51-15.26ZM22.51-30.1L9.4-30.1 9.4-20.14 22.85-20.14Q24.66-20.21 25.45-21.13 26.25-22.05 26.25-23.95L26.25-23.95 26.25-26.25Q26.25-28.25 25.37-29.17 24.49-30.1 22.51-30.1L22.51-30.1ZM67.31-26.49L67.31-22.51Q67.31-15.19 61.06-14.16L61.06-14.16 67.65 0 62.11 0 55.61-13.99 44.65-13.99 44.65 0 39.65 0 39.65-35.01 58.81-35.01Q67.31-35.01 67.31-26.49L67.31-26.49ZM44.65-30L44.65-18.99 58.54-18.99Q60.54-18.99 61.42-19.87 62.3-20.75 62.3-22.75L62.3-22.75 62.3-26.25Q62.3-28.25 61.42-29.13 60.54-30 58.54-30L58.54-30 44.65-30ZM75.65-35.01L80.66-35.01 80.66 0 75.65 0 75.65-35.01ZM89.64-35.01L94.65-35.01 94.65-5 112.64-5 112.64 0 89.64 0 89.64-35.01ZM118.64-35.01L123.65-35.01 123.65-5 141.64-5 141.64 0 118.64 0 118.64-35.01ZM147.64-35.01L152.65-35.01 152.65 0 147.64 0 147.64-35.01ZM172.13-35.01L177.13-35.01 190.63 0 185.63 0 182.53-8.06 166.73-8.06 163.63 0 158.63 0 172.13-35.01ZM174.64-28.49L168.64-13.06 180.6-13.06 174.64-28.49ZM201.64-27.15L201.64 0 196.64 0 196.64-35.01 201.64-35.01 222.69-7.86 222.69-35.01 227.69-35.01 227.69 0 222.69 0 201.64-27.15ZM233.67-30L233.67-35.01 261.67-35.01 261.67-30 250.18-30 250.18 0 245.17 0 245.17-30 233.67-30ZM287.23 0L285.74 0 272.68-25.66 272.68 0 267.68 0 267.68-35.01 273.15-35.01 286.48-8.64 299.83-35.01 305.28-35.01 305.28 0 300.29 0 300.29-25.66 287.23 0ZM314.28-35.01L319.29-35.01 319.29 0 314.28 0 314.28-35.01ZM333.27-27.15L333.27 0 328.27 0 328.27-35.01 333.27-35.01 354.32-7.86 354.32-35.01 359.32-35.01 359.32 0 354.32 0 333.27-27.15ZM373.31-5L386.1-5Q389.59-5 391.47-6.88 393.35-8.76 393.35-12.26L393.35-12.26 393.35-22.75Q393.35-24.46 392.87-25.81 392.38-27.15 391.44-28.09 390.5-29.03 389.15-29.52 387.81-30 386.1-30L386.1-30 373.31-30 373.31-5ZM386.1 0L368.3 0 368.3-35.01 386.1-35.01Q388.91-35.01 391.17-34.14 393.43-33.28 395.03-31.68 396.63-30.08 397.49-27.81 398.36-25.54 398.36-22.75L398.36-22.75 398.36-12.26Q398.36-9.47 397.49-7.2 396.63-4.93 395.03-3.33 393.43-1.73 391.17-0.87 388.91 0 386.1 0L386.1 0ZM403.36-30L403.36-35.01 431.36-35.01 431.36-30 419.86-30 419.86 0 414.86 0 414.86-30 403.36-30ZM437.37 0L437.37-35.01 462.88-35.01 462.88-30 442.37-30 442.37-20 459.88-20 459.88-14.99 442.37-14.99 442.37-5 462.88-5 462.88 0 437.37 0ZM470.37-5L470.37-30Q470.37-31.03 470.76-31.95 471.15-32.86 471.84-33.53 472.52-34.2 473.44-34.61 474.35-35.01 475.38-35.01L475.38-35.01 494.37-35.01Q495.4-35.01 496.31-34.61 497.23-34.2 497.91-33.53 498.6-32.86 498.99-31.95 499.38-31.03 499.38-30L499.38-30 499.38-25.49 494.37-25.49 494.37-30 475.38-30 475.38-5 494.37-5 494.37-9.5 499.38-9.5 499.38-5Q499.38-3.98 498.99-3.06 498.6-2.15 497.91-1.46 497.23-0.78 496.31-0.39 495.4 0 494.37 0L494.37 0 475.38 0Q474.35 0 473.44-0.39 472.52-0.78 471.84-1.46 471.15-2.15 470.76-3.06 470.37-3.98 470.37-5L470.37-5ZM532.43-35.01L537.44-35.01 537.44 0 532.43 0 532.43-14.99 512.39-14.99 512.39 0 507.38 0 507.38-35.01 512.39-35.01 512.39-20 532.43-20 532.43-35.01Z" opacity="1" transform="matrix(1,0,0,1,0,0)" fill="#000000" class="wordmark-text-0" data-fill-palette-color="primary" id="text-0"></path></svg></g></svg></g><g transform="matrix(1,0,0,1,136.98774855947738,32.11361118737942)"><svg viewBox="0 0 121.5445028810452 16.05581834272365" height="16.05581834272365" width="121.5445028810452"><g transform="matrix(1,0,0,1,0,0)"><svg width="121.5445028810452" viewBox="2 -37.1 372.41 49.2" height="16.05581834272365" data-palette-color="#424242"><path d="M16.95 0.6Q12.45 0.6 9.05-1.3 5.65-3.2 3.83-6.68 2-10.15 2-14.85L2-14.85Q2-19.85 4.25-23.88 6.5-27.9 10.48-30.18 14.45-32.45 19.45-32.45L19.45-32.45Q21.3-32.45 23.23-32.18 25.15-31.9 26.48-31.63 27.8-31.35 28.15-31.25L28.15-31.25 28.35-30.95Q28.25-30.65 28.03-29.5 27.8-28.35 27.53-26.5 27.25-24.65 27.1-22.6L27.1-22.6 24.7-22.4Q24.75-22.65 24.8-23.33 24.85-24 24.85-24.85L24.85-24.85Q24.85-29.5 17.5-29.5L17.5-29.5Q14.2-29.5 11.7-27.9 9.2-26.3 7.85-23.38 6.5-20.45 6.5-16.5L6.5-16.5Q6.5-12.15 7.93-8.85 9.35-5.55 11.95-3.73 14.55-1.9 17.95-1.9L17.95-1.9Q21.35-1.9 23.43-3.83 25.5-5.75 26.45-9.8L26.45-9.8 28.85-10Q28.7-9.25 28.2-6.68 27.7-4.1 27.5-1.85L27.5-1.85 27.2-1.4Q27.2-1.35 25.68-0.83 24.15-0.3 21.88 0.15 19.6 0.6 16.95 0.6L16.95 0.6ZM41.8 0.6Q38.95 0.6 36.75-0.8 34.55-2.2 33.32-4.73 32.1-7.25 32.1-10.5L32.1-10.5Q32.1-14 33.62-16.93 35.15-19.85 37.8-21.53 40.45-23.2 43.7-23.2L43.7-23.2Q46.5-23.2 48.72-21.8 50.95-20.4 52.17-17.88 53.4-15.35 53.4-12.1L53.4-12.1Q53.4-8.6 51.87-5.68 50.35-2.75 47.7-1.07 45.05 0.6 41.8 0.6L41.8 0.6ZM43.2-1.85Q46-1.85 47.65-4.13 49.3-6.4 49.3-10.3L49.3-10.3Q49.3-13.25 48.4-15.58 47.5-17.9 45.87-19.2 44.25-20.5 42.2-20.5L42.2-20.5Q39.4-20.5 37.75-18.2 36.1-15.9 36.1-11.95L36.1-11.95Q36.1-9 37-6.7 37.9-4.4 39.5-3.13 41.1-1.85 43.2-1.85L43.2-1.85ZM71.55-1.45Q73.05-1.85 73.7-2.63 74.35-3.4 74.35-4.7L74.35-4.7 74.55-14.6Q74.55-17.1 73.47-18.45 72.4-19.8 70.4-19.8L70.4-19.8Q68.8-19.8 67.15-18.98 65.5-18.15 64.25-17.2L64.25-17.2Q63.8-6.85 63.8-4.9L63.8-4.9Q63.8-3.35 64.2-2.73 64.6-2.1 65.6-2.1L65.6-2.1Q66.15-2.1 66.65-2.15 67.15-2.2 67.35-2.2L67.35-2.2 67.45-2 67 0.15Q66.55 0.1 65.25 0.05 63.95 0 62.45 0L62.45 0Q61.15 0 59.57 0.13 58 0.25 57.5 0.3L57.5 0.3 57.75-1.75Q59.2-2 59.8-2.65 60.4-3.3 60.4-4.7L60.4-4.7 60.4-16.9Q60.4-18.6 59.85-19.28 59.3-19.95 57.95-19.95L57.95-19.95 57.4-19.95 57.25-20.15 57.4-21.8Q59.55-22.15 61.67-22.63 63.8-23.1 64.4-23.25L64.4-23.25 64.7-22.85Q64.6-22.55 64.4-21.58 64.2-20.6 64.15-19.55L64.15-19.55 64.25-19.4Q69.95-23.2 71.6-23.2L71.6-23.2Q74.75-23.2 76.6-21.45 78.45-19.7 78.45-16.75L78.45-16.75Q78.45-16.25 78.15-12.15L78.15-12.15Q77.75-6.95 77.75-4.9L77.75-4.9Q77.75-3.45 78.15-2.78 78.55-2.1 79.5-2.1L79.5-2.1Q80.05-2.1 80.55-2.15 81.05-2.2 81.25-2.2L81.25-2.2 81.35-2 80.95 0.15Q80.5 0.1 79.25 0.05 78 0 76.5 0L76.5 0Q75.2 0 73.52 0.25 71.85 0.5 71.35 0.6L71.35 0.6 71.55-1.45ZM98.94-1.45Q100.44-1.85 101.09-2.63 101.74-3.4 101.74-4.7L101.74-4.7 101.94-14.6Q101.94-17.1 100.87-18.45 99.79-19.8 97.79-19.8L97.79-19.8Q96.19-19.8 94.54-18.98 92.89-18.15 91.64-17.2L91.64-17.2Q91.19-6.85 91.19-4.9L91.19-4.9Q91.19-3.35 91.59-2.73 91.99-2.1 92.99-2.1L92.99-2.1Q93.54-2.1 94.04-2.15 94.54-2.2 94.74-2.2L94.74-2.2 94.84-2 94.39 0.15Q93.94 0.1 92.64 0.05 91.34 0 89.84 0L89.84 0Q88.54 0 86.97 0.13 85.39 0.25 84.89 0.3L84.89 0.3 85.14-1.75Q86.59-2 87.19-2.65 87.79-3.3 87.79-4.7L87.79-4.7 87.79-16.9Q87.79-18.6 87.24-19.28 86.69-19.95 85.34-19.95L85.34-19.95 84.79-19.95 84.64-20.15 84.79-21.8Q86.94-22.15 89.07-22.63 91.19-23.1 91.79-23.25L91.79-23.25 92.09-22.85Q91.99-22.55 91.79-21.58 91.59-20.6 91.54-19.55L91.54-19.55 91.64-19.4Q97.34-23.2 98.99-23.2L98.99-23.2Q102.14-23.2 103.99-21.45 105.84-19.7 105.84-16.75L105.84-16.75Q105.84-16.25 105.54-12.15L105.54-12.15Q105.14-6.95 105.14-4.9L105.14-4.9Q105.14-3.45 105.54-2.78 105.94-2.1 106.89-2.1L106.89-2.1Q107.44-2.1 107.94-2.15 108.44-2.2 108.64-2.2L108.64-2.2 108.74-2 108.34 0.15Q107.89 0.1 106.64 0.05 105.39 0 103.89 0L103.89 0Q102.59 0 100.92 0.25 99.24 0.5 98.74 0.6L98.74 0.6 98.94-1.45ZM122.29 0.6Q119.19 0.6 116.79-0.78 114.39-2.15 113.09-4.67 111.79-7.2 111.79-10.45L111.79-10.45Q111.79-13.8 113.32-16.75 114.84-19.7 117.39-21.45 119.94-23.2 122.84-23.2L122.84-23.2Q126.49-23.2 128.39-21.35 130.29-19.5 130.29-15.95L130.29-15.95Q130.29-14.5 129.99-13.5L129.99-13.5 129.34-12.9 115.54-12.9Q115.49-8.05 117.47-5.43 119.44-2.8 122.99-2.8L122.99-2.8Q125.79-2.8 129.09-4.35L129.09-4.35 129.39-4.25 129.94-2.8Q128.14-1.5 125.97-0.45 123.79 0.6 122.29 0.6L122.29 0.6ZM115.74-14.75L124.79-15.2Q125.54-15.3 125.79-15.55 126.04-15.8 126.04-16.55L126.04-16.55Q126.04-18.55 124.97-19.6 123.89-20.65 121.89-20.65L121.89-20.65Q119.54-20.65 117.87-19.05 116.19-17.45 115.74-14.75L115.74-14.75ZM144.64 0.6Q139.89 0.6 137.04-2.4 134.19-5.4 134.19-10.45L134.19-10.45Q134.19-14 135.71-16.93 137.24-19.85 139.86-21.53 142.49-23.2 145.74-23.2L145.74-23.2Q147.14-23.2 148.44-23 149.74-22.8 150.56-22.58 151.39-22.35 151.59-22.25L151.59-22.25 151.74-21.9Q151.69-21.65 151.46-20.73 151.24-19.8 150.99-18.28 150.74-16.75 150.69-15L150.69-15 148.64-14.85 148.64-16.4Q148.64-18.25 147.51-19.38 146.39-20.5 144.54-20.5L144.54-20.5Q141.49-20.5 139.84-18.32 138.19-16.15 138.19-12.15L138.19-12.15Q138.19-7.8 140.01-5.28 141.84-2.75 144.99-2.75L144.99-2.75Q146.24-2.75 147.49-3.13 148.74-3.5 149.59-3.88 150.44-4.25 150.64-4.4L150.64-4.4 150.94-4.3 151.49-2.75Q151.14-2.5 149.96-1.7 148.79-0.9 147.26-0.15 145.74 0.6 144.64 0.6L144.64 0.6ZM163.89 0.6Q160.49 0.6 159.09-0.78 157.69-2.15 157.69-5.45L157.69-5.45 157.69-17.75Q157.69-19.1 157.09-19.65 156.49-20.2 154.84-20.25L154.84-20.25 154.64-20.55 154.89-22.05Q156.34-22.75 157.71-23.78 159.09-24.8 159.96-25.58 160.84-26.35 161.09-26.6L161.09-26.6 162.09-26.2Q162.04-25.95 161.94-25 161.84-24.05 161.69-22.45L161.69-22.45 169.04-22.6 169.19-22.45 168.74-19.8 161.49-19.95Q161.14-14.45 161.14-7.45L161.14-7.45Q161.14-4.9 162.01-3.85 162.89-2.8 165.04-2.8L165.04-2.8Q165.79-2.8 166.54-3 167.29-3.2 167.79-3.43 168.29-3.65 168.44-3.7L168.44-3.7 168.94-2.4Q168.64-2.15 167.66-1.45 166.69-0.75 165.56-0.08 164.44 0.6 163.89 0.6L163.89 0.6ZM172.28 0.6L172.48-1.45Q173.98-1.85 174.63-2.63 175.28-3.4 175.28-4.7L175.28-4.7 175.28-17.4Q175.28-20.1 173.43-20.1L173.43-20.1Q173.08-20.1 172.68-20.03 172.28-19.95 172.18-19.9L172.18-19.9 172.38-21.75Q174.48-22.05 176.71-22.55 178.93-23.05 179.58-23.2L179.58-23.2 179.83-22.6Q179.38-21.55 179.03-16.18 178.68-10.8 178.68-4.9L178.68-4.9Q178.68-3.45 179.08-2.78 179.48-2.1 180.43-2.1L180.43-2.1Q180.98-2.1 181.48-2.15 181.98-2.2 182.18-2.2L182.18-2.2 182.28-2 181.88 0.15Q181.43 0.1 180.18 0.05 178.93 0 177.43 0L177.43 0Q176.13 0 174.46 0.25 172.78 0.5 172.28 0.6L172.28 0.6ZM176.68-29.1Q175.53-29.1 174.88-29.85 174.23-30.6 174.23-31.65L174.23-31.65Q174.23-32.85 175.08-33.73 175.93-34.6 177.18-34.6L177.18-34.6Q178.33-34.6 178.98-33.85 179.63-33.1 179.63-32.05L179.63-32.05Q179.63-30.85 178.78-29.98 177.93-29.1 176.68-29.1L176.68-29.1ZM200.53-1.45Q202.03-1.85 202.68-2.63 203.33-3.4 203.33-4.7L203.33-4.7 203.53-14.6Q203.53-17.1 202.46-18.45 201.38-19.8 199.38-19.8L199.38-19.8Q197.78-19.8 196.13-18.98 194.48-18.15 193.23-17.2L193.23-17.2Q192.78-6.85 192.78-4.9L192.78-4.9Q192.78-3.35 193.18-2.73 193.58-2.1 194.58-2.1L194.58-2.1Q195.13-2.1 195.63-2.15 196.13-2.2 196.33-2.2L196.33-2.2 196.43-2 195.98 0.15Q195.53 0.1 194.23 0.05 192.93 0 191.43 0L191.43 0Q190.13 0 188.56 0.13 186.98 0.25 186.48 0.3L186.48 0.3 186.73-1.75Q188.18-2 188.78-2.65 189.38-3.3 189.38-4.7L189.38-4.7 189.38-16.9Q189.38-18.6 188.83-19.28 188.28-19.95 186.93-19.95L186.93-19.95 186.38-19.95 186.23-20.15 186.38-21.8Q188.53-22.15 190.66-22.63 192.78-23.1 193.38-23.25L193.38-23.25 193.68-22.85Q193.58-22.55 193.38-21.58 193.18-20.6 193.13-19.55L193.13-19.55 193.23-19.4Q198.93-23.2 200.58-23.2L200.58-23.2Q203.73-23.2 205.58-21.45 207.43-19.7 207.43-16.75L207.43-16.75Q207.43-16.25 207.13-12.15L207.13-12.15Q206.73-6.95 206.73-4.9L206.73-4.9Q206.73-3.45 207.13-2.78 207.53-2.1 208.48-2.1L208.48-2.1Q209.03-2.1 209.53-2.15 210.03-2.2 210.23-2.2L210.23-2.2 210.33-2 209.93 0.15Q209.48 0.1 208.23 0.05 206.98 0 205.48 0L205.48 0Q204.18 0 202.51 0.25 200.83 0.5 200.33 0.6L200.33 0.6 200.53-1.45ZM235.33-21.15Q234.38-21 231.03-20.7L231.03-20.7 230.83-20.45Q232.83-18.25 232.83-15.35L232.83-15.35Q232.83-12.95 231.5-10.9 230.18-8.85 227.93-7.68 225.68-6.5 222.98-6.5L222.98-6.5Q221.53-6.5 220.18-6.9L220.18-6.9Q219.03-6.25 218.53-5.7 218.03-5.15 218.03-4.6L218.03-4.6Q218.03-3.45 219.58-3 221.13-2.55 224.43-2.15L224.43-2.15Q227.68-1.75 229.68-1.33 231.68-0.9 233.13 0.2 234.58 1.3 234.58 3.25L234.58 3.25Q234.58 5.45 232.8 7.5 231.03 9.55 228.15 10.83 225.28 12.1 222.23 12.1L222.23 12.1Q218.68 12.1 216.65 10.33 214.63 8.55 214.63 5.45L214.63 5.45Q215.33 4.55 216.65 3.35 217.98 2.15 219.58 0.95L219.58 0.95 219.58 0.65Q216.98 0.2 215.58-1.05 214.18-2.3 214.13-4.25L214.13-4.25Q216.08-6.1 218.33-7.45L218.33-7.45 218.33-7.65Q216.58-8.65 215.6-10.33 214.63-12 214.63-14.1L214.63-14.1Q214.63-16.55 215.9-18.63 217.18-20.7 219.3-21.95 221.43-23.2 223.93-23.2L223.93-23.2Q225.08-23.2 226.78-22.9L226.78-22.9Q228.03-22.65 228.83-22.65L228.83-22.65Q231.08-22.9 235.73-24.15L235.73-24.15 235.88-23.95 235.33-21.15ZM224.13-8.7Q226.43-8.7 227.75-10.15 229.08-11.6 229.08-14.15L229.08-14.15Q229.08-17.05 227.48-18.85 225.88-20.65 223.33-20.65L223.33-20.65Q221.03-20.65 219.7-19.15 218.38-17.65 218.38-15.1L218.38-15.1Q218.38-12.25 219.98-10.48 221.58-8.7 224.13-8.7L224.13-8.7ZM221.73 1.05Q220.23 2.1 219.43 3.38 218.63 4.65 218.63 5.9L218.63 5.9Q218.63 7.6 220.08 8.63 221.53 9.65 223.93 9.65L223.93 9.65Q225.83 9.65 227.55 8.97 229.28 8.3 230.33 7.15 231.38 6 231.38 4.7L231.38 4.7Q231.38 3.7 230.63 3.1 229.88 2.5 227.85 2.05 225.83 1.6 221.73 1.05L221.73 1.05ZM266.37 0.95L256.77-26 256.52-26Q256.22-22.7 255.47-13.63 254.72-4.55 254.72-3.75L254.72-3.75Q254.72-2.2 256.27-2.2L256.27-2.2 258.32-2.25 258.42-2.05 257.97 0.2Q257.42 0.15 256 0.08 254.57 0 253.12 0L253.12 0Q251.87 0 250.55 0.18 249.22 0.35 248.82 0.4L248.82 0.4 249.07-1.9Q250.67-2.1 251.37-2.93 252.07-3.75 252.27-5.75L252.27-5.75Q252.77-10.45 253.6-18.43 254.42-26.4 254.42-27.35L254.42-27.35Q254.42-28.65 253.4-29.3 252.37-29.95 250.12-30.1L250.12-30.1 249.97-30.35 250.37-32.1Q251.02-32.05 252.92-31.95 254.82-31.85 255.82-31.85L255.82-31.85Q256.72-31.85 257.8-31.93 258.87-32 259.22-32.05L259.22-32.05Q261.22-25.6 263.1-20.08 264.97-14.55 266.17-11.3 267.37-8.05 267.67-7.25L267.67-7.25 267.92-7.25Q268.62-9.1 271.12-16.05 273.62-23 276.57-31.95L276.57-31.95Q276.57-32 277.92-31.9L277.92-31.9 279.87-31.85Q280.82-31.85 282.72-31.98 284.62-32.1 285.27-32.15L285.27-32.15 285.37-31.95 285.12-30.1Q282.97-29.85 282.07-29.23 281.17-28.6 281.17-27.35L281.17-27.35Q281.17-26.25 281.62-19.18 282.07-12.1 282.47-6.95L282.47-6.95Q282.72-4.9 282.97-3.93 283.22-2.95 283.67-2.58 284.12-2.2 284.92-2.2L284.92-2.2Q285.37-2.2 285.77-2.25 286.17-2.3 286.32-2.3L286.32-2.3 286.42-2.1 285.97 0.15Q285.47 0.1 284.1 0.05 282.72 0 281.22 0L281.22 0Q279.87 0 278.2 0.18 276.52 0.35 276.02 0.4L276.02 0.4 276.22-1.9Q277.77-2.1 278.47-2.7 279.17-3.3 279.17-4.4L279.17-4.4Q279.17-5.45 278.45-14.15 277.72-22.85 277.47-26L277.47-26 277.22-26 267.57 0.6 266.37 0.95ZM290.57 0.6L290.77-1.45Q292.27-1.85 292.92-2.63 293.57-3.4 293.57-4.7L293.57-4.7 293.57-17.4Q293.57-20.1 291.72-20.1L291.72-20.1Q291.37-20.1 290.97-20.03 290.57-19.95 290.47-19.9L290.47-19.9 290.67-21.75Q292.77-22.05 295-22.55 297.22-23.05 297.87-23.2L297.87-23.2 298.12-22.6Q297.67-21.55 297.32-16.18 296.97-10.8 296.97-4.9L296.97-4.9Q296.97-3.45 297.37-2.78 297.77-2.1 298.72-2.1L298.72-2.1Q299.27-2.1 299.77-2.15 300.27-2.2 300.47-2.2L300.47-2.2 300.57-2 300.17 0.15Q299.72 0.1 298.47 0.05 297.22 0 295.72 0L295.72 0Q294.42 0 292.75 0.25 291.07 0.5 290.57 0.6L290.57 0.6ZM294.97-29.1Q293.82-29.1 293.17-29.85 292.52-30.6 292.52-31.65L292.52-31.65Q292.52-32.85 293.37-33.73 294.22-34.6 295.47-34.6L295.47-34.6Q296.62-34.6 297.27-33.85 297.92-33.1 297.92-32.05L297.92-32.05Q297.92-30.85 297.07-29.98 296.22-29.1 294.97-29.1L294.97-29.1ZM318.82-1.45Q320.32-1.85 320.97-2.63 321.62-3.4 321.62-4.7L321.62-4.7 321.82-14.6Q321.82-17.1 320.74-18.45 319.67-19.8 317.67-19.8L317.67-19.8Q316.07-19.8 314.42-18.98 312.77-18.15 311.52-17.2L311.52-17.2Q311.07-6.85 311.07-4.9L311.07-4.9Q311.07-3.35 311.47-2.73 311.87-2.1 312.87-2.1L312.87-2.1Q313.42-2.1 313.92-2.15 314.42-2.2 314.62-2.2L314.62-2.2 314.72-2 314.27 0.15Q313.82 0.1 312.52 0.05 311.22 0 309.72 0L309.72 0Q308.42 0 306.84 0.13 305.27 0.25 304.77 0.3L304.77 0.3 305.02-1.75Q306.47-2 307.07-2.65 307.67-3.3 307.67-4.7L307.67-4.7 307.67-16.9Q307.67-18.6 307.12-19.28 306.57-19.95 305.22-19.95L305.22-19.95 304.67-19.95 304.52-20.15 304.67-21.8Q306.82-22.15 308.94-22.63 311.07-23.1 311.67-23.25L311.67-23.25 311.97-22.85Q311.87-22.55 311.67-21.58 311.47-20.6 311.42-19.55L311.42-19.55 311.52-19.4Q317.22-23.2 318.87-23.2L318.87-23.2Q322.02-23.2 323.87-21.45 325.72-19.7 325.72-16.75L325.72-16.75Q325.72-16.25 325.42-12.15L325.42-12.15Q325.02-6.95 325.02-4.9L325.02-4.9Q325.02-3.45 325.42-2.78 325.82-2.1 326.77-2.1L326.77-2.1Q327.32-2.1 327.82-2.15 328.32-2.2 328.52-2.2L328.52-2.2 328.62-2 328.22 0.15Q327.77 0.1 326.52 0.05 325.27 0 323.77 0L323.77 0Q322.47 0 320.79 0.25 319.12 0.5 318.62 0.6L318.62 0.6 318.82-1.45ZM352.37 0.6Q348.47 0.6 347.92-2.95L347.92-2.95 347.57-3.1Q342.37 0.45 341.32 0.45L341.32 0.45Q338.47 0.45 336.27-0.88 334.07-2.2 332.87-4.6 331.67-7 331.67-10.1L331.67-10.1Q331.67-13.65 333.34-16.65 335.02-19.65 337.89-21.43 340.77-23.2 344.12-23.2L344.12-23.2Q345.72-23.2 347.57-23L347.57-23 347.57-31.3Q347.57-34 345.72-34L345.72-34Q345.37-34 344.97-33.93 344.57-33.85 344.47-33.8L344.47-33.8 344.67-35.65Q346.82-35.95 349.12-36.45 351.42-36.95 352.07-37.1L352.07-37.1 352.37-36.45Q351.82-35.6 351.39-25.9 350.97-16.2 350.97-5.25L350.97-5.25Q350.97-4.15 351.52-3.55 352.07-2.95 353.02-2.95L353.02-2.95Q353.72-2.95 354.39-3.23 355.07-3.5 355.49-3.8 355.92-4.1 356.02-4.2L356.02-4.2 356.72-3.4Q356.57-3.15 355.97-2.33 355.37-1.5 354.39-0.6 353.42 0.3 352.37 0.6L352.37 0.6ZM342.12-2.8Q343.17-2.8 344.39-3.4 345.62-4 346.47-4.63 347.32-5.25 347.57-5.45L347.57-5.45 347.57-19.15Q347.42-19.25 346.82-19.53 346.22-19.8 345.14-20.05 344.07-20.3 342.72-20.3L342.72-20.3Q339.37-20.3 337.44-18.03 335.52-15.75 335.52-11.8L335.52-11.8Q335.52-9.3 336.39-7.25 337.27-5.2 338.79-4 340.32-2.8 342.12-2.8L342.12-2.8ZM365.26 0.6Q363.66 0.6 362.34 0.38 361.01 0.15 360.26-0.1 359.51-0.35 359.31-0.45L359.31-0.45 359.16-0.8Q359.31-1.55 359.51-3.9 359.71-6.25 359.76-7.5L359.76-7.5 361.51-7.75Q361.51-4.45 362.61-3.1 363.71-1.75 366.36-1.75L366.36-1.75Q368.26-1.75 369.56-2.6 370.86-3.45 370.86-4.7L370.86-4.7Q370.86-5.95 369.69-6.98 368.51-8 365.06-9.85L365.06-9.85Q362.21-11.3 360.91-12.8 359.61-14.3 359.61-16.1L359.61-16.1Q359.61-18.1 360.81-19.73 362.01-21.35 364.11-22.28 366.21-23.2 368.81-23.2L368.81-23.2Q370.01-23.2 371.11-23.03 372.21-22.85 372.91-22.65 373.61-22.45 373.81-22.4L373.81-22.4 373.91-22.15Q373.81-21.65 373.46-19.88 373.11-18.1 372.96-16.05L372.96-16.05 371.11-15.9Q371.11-16.05 371.16-16.5 371.21-16.95 371.21-17.35L371.21-17.35Q371.21-19.15 370.24-19.98 369.26-20.8 367.11-20.8L367.11-20.8Q365.41-20.8 364.24-20 363.06-19.2 363.06-18.05L363.06-18.05Q363.06-16.85 364.09-15.8 365.11-14.75 367.41-13.55L367.41-13.55Q371.46-11.4 372.94-9.93 374.41-8.45 374.41-6.55L374.41-6.55Q374.41-4.65 373.16-3 371.91-1.35 369.79-0.38 367.66 0.6 365.26 0.6L365.26 0.6Z" opacity="1" transform="matrix(1,0,0,1,0,0)" fill="#000000" class="slogan-text-1" data-fill-palette-color="secondary" id="text-1"></path></svg></g></svg></g></svg></g></svg></g></svg></g><defs></defs></svg><rect width="395.52" height="48.169429530103066" fill="none" stroke="none" visibility="hidden"></rect></g></svg></g></svg>