<svg xmlns="http://www.w3.org/2000/svg" version="1.1" xmlns:xlink="http://www.w3.org/1999/xlink" xmlns:svgjs="http://svgjs.dev/svgjs" width="1500" height="1500" viewBox="0 0 1500 1500"><rect width="1500" height="1500" fill="#ffffff"></rect><g transform="matrix(0.6666666666666666,0,0,0.6666666666666666,249.39393939393943,638.133105951267)"><svg viewBox="0 0 396 89" data-background-color="#fafafa" preserveAspectRatio="xMidYMid meet" height="337" width="1500" xmlns="http://www.w3.org/2000/svg" xmlns:xlink="http://www.w3.org/1999/xlink"><g id="tight-bounds" transform="matrix(1,0,0,1,0.2400000000000091,-0.1847763931577333)"><svg viewBox="0 0 395.52 89.36955278631545" height="89.36955278631545" width="395.52"><g><svg viewBox="0 0 504.85904986246146 114.0752111304923" height="89.36955278631545" width="395.52"><g transform="matrix(1,0,0,1,109.33904986246145,34.23551492663043)"><svg viewBox="0 0 395.52 45.60418127723145" height="45.60418127723145" width="395.52"><g id="textblocktransform"><svg viewBox="0 0 395.52 45.60418127723145" height="45.60418127723145" width="395.52" id="textblock"><g><svg viewBox="0 0 395.52 24.59671624962054" height="24.59671624962054" width="395.52"><g transform="matrix(1,0,0,1,0,0)"><svg width="395.52" viewBox="4.49 -35.01 562.92 35.01" height="24.59671624962054" data-palette-color="#f9a825"><path d="M27.29-18.26L27.29-18.26Q28.39-17.92 29.3-17.29 30.2-16.65 30.83-15.66 31.47-14.67 31.81-13.33 32.15-11.99 32.15-10.25L32.15-10.25 32.15-8.5Q32.15 0 23.66 0L23.66 0 4.49 0 4.49-35.01 22.66-35.01Q31.15-35.01 31.15-26.49L31.15-26.49 31.15-25.85Q31.15-22.9 30.21-21.03 29.27-19.17 27.29-18.26ZM23.51-15.26L9.4-15.26 9.4-4.91 23.51-4.91Q25.49-4.91 26.37-5.83 27.25-6.76 27.25-8.74L27.25-8.74 27.25-11.45Q27.25-13.45 26.37-14.36 25.49-15.26 23.51-15.26L23.51-15.26ZM22.51-30.1L9.4-30.1 9.4-20.14 22.85-20.14Q24.66-20.21 25.45-21.13 26.25-22.05 26.25-23.95L26.25-23.95 26.25-26.25Q26.25-28.25 25.37-29.17 24.49-30.1 22.51-30.1L22.51-30.1ZM67.31-26.49L67.31-22.51Q67.31-15.19 61.06-14.16L61.06-14.16 67.65 0 62.11 0 55.61-13.99 44.65-13.99 44.65 0 39.65 0 39.65-35.01 58.81-35.01Q67.31-35.01 67.31-26.49L67.31-26.49ZM44.65-30L44.65-18.99 58.54-18.99Q60.54-18.99 61.42-19.87 62.3-20.75 62.3-22.75L62.3-22.75 62.3-26.25Q62.3-28.25 61.42-29.13 60.54-30 58.54-30L58.54-30 44.65-30ZM75.65-35.01L80.66-35.01 80.66 0 75.65 0 75.65-35.01ZM89.64-35.01L94.65-35.01 94.65-5 112.64-5 112.64 0 89.64 0 89.64-35.01ZM118.64-35.01L123.65-35.01 123.65-5 141.64-5 141.64 0 118.64 0 118.64-35.01ZM147.64-35.01L152.65-35.01 152.65 0 147.64 0 147.64-35.01ZM172.13-35.01L177.13-35.01 190.63 0 185.63 0 182.53-8.06 166.73-8.06 163.63 0 158.63 0 172.13-35.01ZM174.64-28.49L168.64-13.06 180.6-13.06 174.64-28.49ZM201.64-27.15L201.64 0 196.64 0 196.64-35.01 201.64-35.01 222.69-7.86 222.69-35.01 227.69-35.01 227.69 0 222.69 0 201.64-27.15ZM233.67-30L233.67-35.01 261.67-35.01 261.67-30 250.18-30 250.18 0 245.17 0 245.17-30 233.67-30ZM302.22 0L300.73 0 287.67-25.66 287.67 0 282.67 0 282.67-35.01 288.13-35.01 301.46-8.64 314.82-35.01 320.26-35.01 320.26 0 315.28 0 315.28-25.66 302.22 0ZM329.27-35.01L334.27-35.01 334.27 0 329.27 0 329.27-35.01ZM348.26-27.15L348.26 0 343.26 0 343.26-35.01 348.26-35.01 369.31-7.86 369.31-35.01 374.31-35.01 374.31 0 369.31 0 348.26-27.15ZM388.3-5L401.09-5Q404.58-5 406.46-6.88 408.34-8.76 408.34-12.26L408.34-12.26 408.34-22.75Q408.34-24.46 407.85-25.81 407.36-27.15 406.43-28.09 405.49-29.03 404.14-29.52 402.8-30 401.09-30L401.09-30 388.3-30 388.3-5ZM401.09 0L383.29 0 383.29-35.01 401.09-35.01Q403.9-35.01 406.16-34.14 408.41-33.28 410.01-31.68 411.61-30.08 412.48-27.81 413.35-25.54 413.35-22.75L413.35-22.75 413.35-12.26Q413.35-9.47 412.48-7.2 411.61-4.93 410.01-3.33 408.41-1.73 406.16-0.87 403.9 0 401.09 0L401.09 0ZM433.34-30L433.34-35.01 461.34-35.01 461.34-30 449.84-30 449.84 0 444.84 0 444.84-30 433.34-30ZM467.34 0L467.34-35.01 492.86-35.01 492.86-30 472.35-30 472.35-20 489.85-20 489.85-14.99 472.35-14.99 472.35-5 492.86-5 492.86 0 467.34 0ZM500.35-5L500.35-30Q500.35-31.03 500.74-31.95 501.13-32.86 501.81-33.53 502.5-34.2 503.41-34.61 504.33-35.01 505.35-35.01L505.35-35.01 524.35-35.01Q525.37-35.01 526.29-34.61 527.2-34.2 527.89-33.53 528.57-32.86 528.96-31.95 529.35-31.03 529.35-30L529.35-30 529.35-25.49 524.35-25.49 524.35-30 505.35-30 505.35-5 524.35-5 524.35-9.5 529.35-9.5 529.35-5Q529.35-3.98 528.96-3.06 528.57-2.15 527.89-1.46 527.2-0.78 526.29-0.39 525.37 0 524.35 0L524.35 0 505.35 0Q504.33 0 503.41-0.39 502.5-0.78 501.81-1.46 501.13-2.15 500.74-3.06 500.35-3.98 500.35-5L500.35-5ZM562.41-35.01L567.41-35.01 567.41 0 562.41 0 562.41-14.99 542.36-14.99 542.36 0 537.36 0 537.36-35.01 542.36-35.01 542.36-20 562.41-20 562.41-35.01Z" opacity="1" transform="matrix(1,0,0,1,0,0)" fill="#000000" class="wordmark-text-0" data-fill-palette-color="primary" id="text-0"></path></svg></g></svg></g><g transform="matrix(1,0,0,1,100.31301763190312,30.403410634965958)"><svg viewBox="0 0 194.89396473619374 15.200770642265493" height="15.200770642265493" width="194.89396473619374"><g transform="matrix(1,0,0,1,0,0)"><svg width="194.89396473619374" viewBox="2.85 -32.45 426.90999999999997 33.300000000000004" height="15.200770642265493" data-palette-color="#424242"><path d="M10.95 0.6Q8.85 0.6 7.1 0.23 5.35-0.15 4.23-0.6 3.1-1.05 3.1-1.1L3.1-1.1 2.85-1.6Q2.9-1.9 3.05-3.1 3.2-4.3 3.33-6.23 3.45-8.15 3.45-10.3L3.45-10.3 5.7-10.55Q5.7-6.8 6.2-5 6.7-3.2 8.05-2.53 9.4-1.85 12.2-1.85L12.2-1.85Q15.35-1.85 17.25-3.33 19.15-4.8 19.15-7.35L19.15-7.35Q19.15-8.85 18.13-10.05 17.1-11.25 15.7-12.1 14.3-12.95 11.55-14.4L11.55-14.4Q8.95-15.75 7.3-16.88 5.65-18 4.53-19.55 3.4-21.1 3.4-23.15L3.4-23.15Q3.4-25.75 4.93-27.88 6.45-30 9.08-31.23 11.7-32.45 14.9-32.45L14.9-32.45Q16.9-32.45 18.6-32.18 20.3-31.9 21.3-31.6 22.3-31.3 22.55-31.2L22.55-31.2 22.7-30.9Q22.65-30.6 22.45-29.5 22.25-28.4 22-26.45 21.75-24.5 21.6-22.45L21.6-22.45 19.65-22.25 19.35-22.5Q19.4-22.7 19.45-23.43 19.5-24.15 19.5-25.1L19.5-25.1Q19.5-27.75 18.2-28.75 16.9-29.75 13.55-29.75L13.55-29.75Q10.8-29.75 9.03-28.38 7.25-27 7.25-24.95L7.25-24.95Q7.25-22.95 8.97-21.48 10.7-20 14.05-18.25L14.05-18.25Q17.3-16.6 19-15.53 20.7-14.45 22-12.85 23.3-11.25 23.3-9.15L23.3-9.15Q23.3-6.35 21.73-4.13 20.15-1.9 17.35-0.65 14.55 0.6 10.95 0.6L10.95 0.6ZM52.95-8.6L53.1-8.35Q52.25-4.3 51.75 0.05L51.75 0.05 51.5 0.35Q41 0 36.35 0L36.35 0Q32.65 0 29.4 0.5L29.4 0.5 29.7-1.8Q31.95-2.1 32.77-2.98 33.6-3.85 33.6-6L33.6-6 33.65-27Q33.65-28.6 33.27-29.15 32.9-29.7 31.8-29.7L31.8-29.7 30.1-29.6 30-29.8 30.35-32Q35.45-31.85 37.3-31.85L37.3-31.85Q43.25-31.85 46.55-31.98 49.85-32.1 52.3-32.45L52.3-32.45 52.45-32.15Q51.55-28.2 51.3-23.85L51.3-23.85 48.9-23.65 49-25.8Q49-27.55 48.55-28.23 48.1-28.9 46.6-29.13 45.1-29.35 41.35-29.35L41.35-29.35Q39.6-29.35 38.95-29.25 38.3-29.15 38.1-28.78 37.9-28.4 37.85-27.4L37.85-27.4 37.45-17.7 42.6-17.65Q44.55-17.65 48.7-18.2L48.7-18.2 48.9-17.95 48.2-15Q42.65-15.15 41.2-15.15L41.2-15.15Q39.55-15.15 37.35-14.8L37.35-14.8 37.15-5.25Q37.15-3.8 37.4-3.23 37.65-2.65 38.42-2.45 39.2-2.25 41.1-2.25L41.1-2.25Q45.3-2.25 47.07-2.65 48.85-3.05 49.6-4.25 50.35-5.45 50.75-8.35L50.75-8.35 52.95-8.6ZM81.65 0.8Q80.4 0.8 78.97-0.48 77.55-1.75 76.34-3.95L76.34-3.95 71-13.65 66.84-13.65 66.7-6.2Q66.7-4.3 66.95-3.48 67.2-2.65 67.9-2.38 68.59-2.1 70.3-2.1L70.3-2.1 70.4-1.9 69.95 0.2Q69.34 0.15 67.55 0.1 65.75 0.05 63.8 0.05L63.8 0.05Q62.05 0.05 60.7 0.1 59.34 0.15 58.9 0.2L58.9 0.2 59.34-2.05Q60.95-2.25 61.75-2.6 62.55-2.95 62.84-3.73 63.15-4.5 63.15-6L63.15-6 63.2-27Q63.2-28.6 62.82-29.15 62.45-29.7 61.34-29.7L61.34-29.7Q60.84-29.7 60.34-29.65 59.84-29.6 59.65-29.6L59.65-29.6 59.55-29.8 59.9-32Q60.5-31.95 62.15-31.9 63.8-31.85 65.45-31.85L65.45-31.85Q67.15-31.85 69.02-31.93 70.9-32 71.59-32.05L71.59-32.05Q76.25-32.05 78.95-29.95 81.65-27.85 81.65-24.2L81.65-24.2Q81.65-21.2 79.72-18.7 77.8-16.2 74.3-14.6L74.3-14.6 79.8-5.9Q81.25-3.5 82.62-2.58 84-1.65 86-1.65L86-1.65 86.2-1.45 85.9 0.25 81.65 0.8ZM72.09-15.95Q72.09-15.8 73.59-16.6 75.09-17.4 76.3-19.05 77.5-20.7 77.5-23.3L77.5-23.3Q77.5-29.9 68.34-29.9L68.34-29.9Q67.84-29.9 67.67-29.68 67.5-29.45 67.45-28.75L67.45-28.75Q67-21.1 66.95-16.45L66.95-16.45 72.09-15.95ZM97.99 0.85Q97.24-1.65 94.62-10.15 91.99-18.65 89.34-26.8L89.34-26.8Q88.89-28.25 87.79-28.93 86.69-29.6 84.74-29.65L84.74-29.65 84.64-29.85 84.99-32Q85.64-32 87.42-31.93 89.19-31.85 90.79-31.85L90.79-31.85Q92.44-31.85 94.97-32.08 97.49-32.3 98.29-32.4L98.29-32.4 98.44-32.05 98.24-30.1Q95.54-29.9 94.67-29.5 93.79-29.1 93.79-28L93.79-28Q93.79-27 96.44-17.63 99.09-8.25 100.09-4.85L100.09-4.85 100.54-4.85Q108.84-26.25 108.84-27.85L108.84-27.85Q108.84-28.9 108.04-29.38 107.24-29.85 105.39-29.85L105.39-29.85 102.79-29.85 102.69-30.05 102.99-32.2Q103.64-32.15 105.87-32 108.09-31.85 110.14-31.85L110.14-31.85Q111.99-31.85 113.57-31.9 115.14-31.95 115.64-32L115.64-32 115.24-29.65Q113.69-29.6 113.09-29.15 112.49-28.7 111.94-27.25L111.94-27.25 101.19-0.25 97.99 0.85ZM118.39 0.6L118.69-1.7Q121.04-2.15 121.87-3.03 122.69-3.9 122.69-6L122.69-6 122.74-27Q122.74-28.6 122.37-29.15 121.99-29.7 120.89-29.7L120.89-29.7 118.79-29.6 118.69-29.8 119.04-32Q119.84-32 120.29-31.95L120.29-31.95 124.99-31.85Q127.24-31.85 130.74-32.3L130.74-32.3 130.54-30.05Q128.49-29.8 127.77-29.23 127.04-28.65 126.94-27.2L126.94-27.2Q126.64-21.35 126.44-14.98 126.24-8.6 126.24-5.6L126.24-5.6Q126.24-3.55 126.69-2.88 127.14-2.2 128.44-2.2L128.44-2.2Q129.29-2.2 131.09-2.35L131.09-2.35 131.19-2.15 130.74 0.15Q130.04 0.15 129.64 0.1L129.64 0.1Q126.14 0 124.19 0L124.19 0Q121.74 0 118.39 0.6L118.39 0.6ZM150.59 0.6Q146.09 0.6 142.69-1.3 139.29-3.2 137.46-6.68 135.64-10.15 135.64-14.85L135.64-14.85Q135.64-19.85 137.89-23.88 140.14-27.9 144.11-30.18 148.09-32.45 153.09-32.45L153.09-32.45Q154.94-32.45 156.86-32.18 158.79-31.9 160.11-31.63 161.44-31.35 161.79-31.25L161.79-31.25 161.99-30.95Q161.89-30.65 161.66-29.5 161.44-28.35 161.16-26.5 160.89-24.65 160.74-22.6L160.74-22.6 158.34-22.4Q158.39-22.65 158.44-23.33 158.49-24 158.49-24.85L158.49-24.85Q158.49-29.5 151.14-29.5L151.14-29.5Q147.84-29.5 145.34-27.9 142.84-26.3 141.49-23.38 140.14-20.45 140.14-16.5L140.14-16.5Q140.14-12.15 141.56-8.85 142.99-5.55 145.59-3.73 148.19-1.9 151.59-1.9L151.59-1.9Q154.99-1.9 157.06-3.83 159.14-5.75 160.09-9.8L160.09-9.8 162.49-10Q162.34-9.25 161.84-6.68 161.34-4.1 161.14-1.85L161.14-1.85 160.84-1.4Q160.84-1.35 159.31-0.83 157.79-0.3 155.51 0.15 153.24 0.6 150.59 0.6L150.59 0.6ZM191.39-8.6L191.54-8.35Q190.69-4.3 190.19 0.05L190.19 0.05 189.94 0.35Q179.44 0 174.79 0L174.79 0Q171.09 0 167.84 0.5L167.84 0.5 168.14-1.8Q170.39-2.1 171.21-2.98 172.04-3.85 172.04-6L172.04-6 172.09-27Q172.09-28.6 171.71-29.15 171.34-29.7 170.24-29.7L170.24-29.7 168.54-29.6 168.44-29.8 168.79-32Q173.89-31.85 175.74-31.85L175.74-31.85Q181.69-31.85 184.99-31.98 188.29-32.1 190.74-32.45L190.74-32.45 190.89-32.15Q189.99-28.2 189.74-23.85L189.74-23.85 187.34-23.65 187.44-25.8Q187.44-27.55 186.99-28.23 186.54-28.9 185.04-29.13 183.54-29.35 179.79-29.35L179.79-29.35Q178.04-29.35 177.39-29.25 176.74-29.15 176.54-28.78 176.34-28.4 176.29-27.4L176.29-27.4 175.89-17.7 181.04-17.65Q182.99-17.65 187.14-18.2L187.14-18.2 187.34-17.95 186.64-15Q181.09-15.15 179.64-15.15L179.64-15.15Q177.99-15.15 175.79-14.8L175.79-14.8 175.59-5.25Q175.59-3.8 175.84-3.23 176.09-2.65 176.86-2.45 177.64-2.25 179.54-2.25L179.54-2.25Q183.74-2.25 185.51-2.65 187.29-3.05 188.04-4.25 188.79-5.45 189.19-8.35L189.19-8.35 191.39-8.6ZM205.43 0.6Q203.33 0.6 201.58 0.23 199.83-0.15 198.71-0.6 197.58-1.05 197.58-1.1L197.58-1.1 197.33-1.6Q197.38-1.9 197.53-3.1 197.68-4.3 197.81-6.23 197.93-8.15 197.93-10.3L197.93-10.3 200.18-10.55Q200.18-6.8 200.68-5 201.18-3.2 202.53-2.53 203.88-1.85 206.68-1.85L206.68-1.85Q209.83-1.85 211.73-3.33 213.63-4.8 213.63-7.35L213.63-7.35Q213.63-8.85 212.61-10.05 211.58-11.25 210.18-12.1 208.78-12.95 206.03-14.4L206.03-14.4Q203.43-15.75 201.78-16.88 200.13-18 199.01-19.55 197.88-21.1 197.88-23.15L197.88-23.15Q197.88-25.75 199.41-27.88 200.93-30 203.56-31.23 206.18-32.45 209.38-32.45L209.38-32.45Q211.38-32.45 213.08-32.18 214.78-31.9 215.78-31.6 216.78-31.3 217.03-31.2L217.03-31.2 217.18-30.9Q217.13-30.6 216.93-29.5 216.73-28.4 216.48-26.45 216.23-24.5 216.08-22.45L216.08-22.45 214.13-22.25 213.83-22.5Q213.88-22.7 213.93-23.43 213.98-24.15 213.98-25.1L213.98-25.1Q213.98-27.75 212.68-28.75 211.38-29.75 208.03-29.75L208.03-29.75Q205.28-29.75 203.51-28.38 201.73-27 201.73-24.95L201.73-24.95Q201.73-22.95 203.46-21.48 205.18-20 208.53-18.25L208.53-18.25Q211.78-16.6 213.48-15.53 215.18-14.45 216.48-12.85 217.78-11.25 217.78-9.15L217.78-9.15Q217.78-6.35 216.21-4.13 214.63-1.9 211.83-0.65 209.03 0.6 205.43 0.6L205.43 0.6ZM234.03 0.4L234.38-1.9Q236.58-2.3 237.28-3.08 237.98-3.85 237.98-6L237.98-6 238.03-27Q238.03-28.6 237.65-29.15 237.28-29.7 236.18-29.7L236.18-29.7Q235.68-29.7 235.18-29.65 234.68-29.6 234.48-29.6L234.48-29.6 234.38-29.8 234.73-32Q235.33-31.95 236.98-31.9 238.63-31.85 240.28-31.85L240.28-31.85Q241.83-31.85 243.8-31.93 245.78-32 246.58-32.05L246.58-32.05Q251.78-32.05 254.53-29.75 257.28-27.45 257.28-23.15L257.28-23.15Q257.28-20.35 255.65-17.82 254.03-15.3 251.38-13.75 248.73-12.2 245.83-12.2L245.83-12.2 241.63-12.2 241.53-7.3Q241.53-4.9 241.68-3.88 241.83-2.85 242.25-2.53 242.68-2.2 243.73-2.2L243.73-2.2Q244.58-2.2 245.35-2.25 246.13-2.3 246.43-2.35L246.43-2.35 246.53-2.15 246.08 0.15Q245.58 0.1 244.25 0.05 242.93 0 241.48 0L241.48 0Q239.48 0 236.8 0.15 234.13 0.3 234.03 0.4L234.03 0.4ZM247.03-14.4Q250.03-14.9 251.55-16.85 253.08-18.8 253.08-22.2L253.08-22.2Q253.08-26.05 250.8-27.83 248.53-29.6 243.68-29.6L243.68-29.6Q242.78-29.6 242.58-29.5 242.38-29.4 242.33-28.9L242.33-28.9Q241.88-22.55 241.73-15.15L241.73-15.15 247.03-14.4ZM270.83 0.85Q270.08-1.65 267.45-10.15 264.83-18.65 262.18-26.8L262.18-26.8Q261.73-28.25 260.63-28.93 259.53-29.6 257.58-29.65L257.58-29.65 257.48-29.85 257.83-32Q258.48-32 260.25-31.93 262.03-31.85 263.63-31.85L263.63-31.85Q265.28-31.85 267.8-32.08 270.33-32.3 271.13-32.4L271.13-32.4 271.28-32.05 271.08-30.1Q268.38-29.9 267.5-29.5 266.63-29.1 266.63-28L266.63-28Q266.63-27 269.28-17.63 271.93-8.25 272.93-4.85L272.93-4.85 273.38-4.85Q281.68-26.25 281.68-27.85L281.68-27.85Q281.68-28.9 280.88-29.38 280.08-29.85 278.23-29.85L278.23-29.85 275.63-29.85 275.53-30.05 275.83-32.2Q276.48-32.15 278.7-32 280.93-31.85 282.98-31.85L282.98-31.85Q284.83-31.85 286.4-31.9 287.98-31.95 288.48-32L288.48-32 288.08-29.65Q286.53-29.6 285.93-29.15 285.33-28.7 284.78-27.25L284.78-27.25 274.03-0.25 270.83 0.85ZM294.67 0.2L295.07-1.95Q297.57-2.15 298.52-2.58 299.47-3 299.77-4.13 300.07-5.25 300.07-8.1L300.07-8.1 300.07-29.9Q295.82-29.75 294.3-29.43 292.77-29.1 292.22-27.98 291.67-26.85 291.22-23.6L291.22-23.6 288.87-23.4Q289.47-28.15 289.62-32.05L289.62-32.05 290.07-32.45 294.22-31.9 309.72-31.9 313.97-32.45 314.42-32.05Q314.57-27.95 315.17-23.6L315.17-23.6 312.82-23.4Q312.27-26.7 311.72-27.85 311.17-29 309.77-29.35 308.37-29.7 304.37-29.9L304.37-29.9Q304.07-26.9 303.82-19.3 303.57-11.7 303.57-5.6L303.57-5.6Q303.57-3.75 304.22-2.98 304.87-2.2 306.42-2.2L306.42-2.2Q307.92-2.2 309.17-2.35L309.17-2.35 309.32-2.15 308.87 0.15 307.22 0.1 301.52 0Q298.77 0 294.67 0.2L294.67 0.2ZM319.17 0.6Q317.82 0.6 317.1-0.23 316.37-1.05 316.37-2.25L316.37-2.25Q316.37-3.55 317.22-4.45 318.07-5.35 319.47-5.35L319.47-5.35Q320.82-5.35 321.57-4.53 322.32-3.7 322.32-2.5L322.32-2.5Q322.32-1.2 321.45-0.3 320.57 0.6 319.17 0.6L319.17 0.6ZM339.27 0.5L339.57-1.8Q341.52-2.1 342.24-2.98 342.97-3.85 342.97-6L342.97-6 343.02-27Q343.02-28.6 342.64-29.15 342.27-29.7 341.17-29.7L341.17-29.7Q340.67-29.7 340.17-29.65 339.67-29.6 339.47-29.6L339.47-29.6 339.37-29.8 339.72-32Q340.32-31.95 341.97-31.9 343.62-31.85 345.32-31.85L345.32-31.85Q346.67-31.85 348.39-32.02 350.12-32.2 350.67-32.3L350.67-32.3 350.47-30.05Q348.82-29.85 348.19-29.4 347.57-28.95 347.44-28.35 347.32-27.75 347.17-25.4L347.17-25.4Q346.87-21.15 346.72-15.7 346.57-10.25 346.57-6.1L346.57-6.1Q346.57-4.3 346.87-3.53 347.17-2.75 347.99-2.5 348.82-2.25 350.82-2.25L350.82-2.25Q353.87-2.25 355.29-2.75 356.72-3.25 357.44-4.7 358.17-6.15 358.77-9.35L358.77-9.35 360.97-9.6 361.12-9.35Q360.97-8.55 360.49-5.75 360.02-2.95 359.67 0.15L359.67 0.15 359.42 0.45Q357.97 0.35 353.44 0.18 348.92 0 345.97 0L345.97 0Q343.62 0 341.69 0.2 339.77 0.4 339.27 0.5L339.27 0.5ZM365.46 0.2L365.86-1.95Q368.36-2.15 369.31-2.58 370.26-3 370.56-4.13 370.86-5.25 370.86-8.1L370.86-8.1 370.86-29.9Q366.61-29.75 365.09-29.43 363.56-29.1 363.01-27.98 362.46-26.85 362.01-23.6L362.01-23.6 359.66-23.4Q360.26-28.15 360.41-32.05L360.41-32.05 360.86-32.45 365.01-31.9 380.51-31.9 384.76-32.45 385.21-32.05Q385.36-27.95 385.96-23.6L385.96-23.6 383.61-23.4Q383.06-26.7 382.51-27.85 381.96-29 380.56-29.35 379.16-29.7 375.16-29.9L375.16-29.9Q374.86-26.9 374.61-19.3 374.36-11.7 374.36-5.6L374.36-5.6Q374.36-3.75 375.01-2.98 375.66-2.2 377.21-2.2L377.21-2.2Q378.71-2.2 379.96-2.35L379.96-2.35 380.11-2.15 379.66 0.15 378.01 0.1 372.31 0Q369.56 0 365.46 0.2L365.46 0.2ZM402.36 0.6Q401.61 0.5 399.19 0.25 396.76 0 395.16 0L395.16 0Q393.61 0 391.79 0.25 389.96 0.5 389.41 0.6L389.41 0.6 389.71-1.7Q392.01-2.15 392.81-3.03 393.61-3.9 393.61-6L393.61-6 393.66-27Q393.66-28.6 393.29-29.15 392.91-29.7 391.81-29.7L391.81-29.7Q391.31-29.7 390.81-29.65 390.31-29.6 390.11-29.6L390.11-29.6 390.01-29.8 390.36-32Q390.91-31.95 392.46-31.9 394.01-31.85 395.61-31.85L395.61-31.85Q397.76-31.85 400.06-31.93 402.36-32 403.21-32.05L403.21-32.05Q408.01-32.05 411.76-30.18 415.51-28.3 417.59-24.9 419.66-21.5 419.66-17.1L419.66-17.1Q419.66-12.2 417.36-8.15 415.06-4.1 411.11-1.75 407.16 0.6 402.36 0.6L402.36 0.6ZM399.76-29.6Q398.71-29.6 398.36-29.38 398.01-29.15 397.96-28.5L397.96-28.5Q397.21-9.25 397.21-6.55L397.21-6.55Q397.21-4.65 397.74-3.7 398.26-2.75 399.59-2.35 400.91-1.95 403.51-1.95L403.51-1.95Q408.91-1.95 412.01-5.68 415.11-9.4 415.11-15.9L415.11-15.9Q415.11-22.5 411.14-26.05 407.16-29.6 399.76-29.6L399.76-29.6ZM426.61 0.6Q425.26 0.6 424.53-0.23 423.81-1.05 423.81-2.25L423.81-2.25Q423.81-3.55 424.66-4.45 425.51-5.35 426.91-5.35L426.91-5.35Q428.26-5.35 429.01-4.53 429.76-3.7 429.76-2.5L429.76-2.5Q429.76-1.2 428.88-0.3 428.01 0.6 426.61 0.6L426.61 0.6Z" opacity="1" transform="matrix(1,0,0,1,0,0)" fill="#000000" class="slogan-text-1" data-fill-palette-color="secondary" id="text-1"></path></svg></g></svg></g></svg></g></svg></g><g><svg viewBox="0 0 103.53235547711603 114.0752111304923" height="114.0752111304923" width="103.53235547711603"><g><svg xmlns="http://www.w3.org/2000/svg" xml:space="preserve" viewBox="18.999999999999986 9.589056352527853 61.93123764778714 80.71094364747215" x="8" y="0" height="114.0752111304923" width="87.53235547711603" class="icon-icon-0" data-fill-palette-color="accent" id="icon-0"><path d="M35.8 32.8c1-6.5 6.1-11.5 12.6-12.3 4.8-0.6 9.5 1.3 12.6 5a14.3 14.3 0 0 1-1.8 20.2c-0.6 0.5-1 1.3-1 2.2 0 1.2-1 2.2-2.2 2.2H43.8c-1.2 0-2.1-1-2.1-2.2 0-0.8-0.4-1.6-1-2.2-3.7-3.2-5.5-8-4.9-12.9m14.5-15.4c0.7 0 1.3-0.6 1.3-1.3v-5c0.1-0.7-0.5-1.4-1.2-1.5s-1.4 0.5-1.5 1.2V16c0 0.8 0.6 1.4 1.4 1.4m-13.9 4.8c0.5 0.6 1.3 0.6 1.9 0.1s0.6-1.3 0.1-1.9l-0.1-0.1-3.6-3.6c-0.6-0.5-1.4-0.4-1.9 0.1-0.4 0.5-0.4 1.2 0 1.8z m-9.7 13.2h5c0.7-0.1 1.3-0.7 1.2-1.5-0.1-0.6-0.6-1.2-1.2-1.2h-5c-0.7 0.1-1.3 0.7-1.2 1.5 0.1 0.6 0.6 1.1 1.2 1.2m40.2-0.8c0 0.7 0.6 1.3 1.3 1.3h5c0.7-0.1 1.3-0.7 1.2-1.5-0.1-0.6-0.6-1.2-1.2-1.2h-5c-0.7 0.1-1.3 0.7-1.3 1.4M63.1 23c0.4 0 0.7-0.2 0.9-0.4l3.6-3.6c0.6-0.5 0.6-1.3 0.1-1.9s-1.3-0.6-1.9-0.1l-0.1 0.1-3.6 3.6c-0.5 0.5-0.6 1.3-0.1 1.9 0.3 0.3 0.7 0.4 1.1 0.4m17.8 59.8c-0.1-2.5-0.2-8.7-0.4-11.1-0.2-2.6-0.7-5.2-1.4-7.7-0.7-2.4-2-4-4-4.6-2.9-0.9-5.7-1.9-8.6-2.8-2.5-0.8-5-1.6-7.6-2.3-0.7-0.2-0.7-0.2-0.9 0.7-1.2 5.9-2.7 11.7-4.3 17.5-0.1 0.4-0.2 0.8-0.4 1.3 0-0.1-0.1-0.2-0.1-0.4-0.4-3.5-0.7-7.1-1.1-10.6-0.2-0.9 0-1.9 0.3-2.8 0.2-0.4 1.4-3.9 1.5-4.4 0.3-0.9-8.4-0.9-8.1 0 0.1 0.5 1.3 3.9 1.5 4.4 0.4 0.9 0.5 1.8 0.4 2.7-0.4 3.5-0.8 7.1-1.1 10.6 0 0.1 0 0.2-0.1 0.4-0.2-0.5-0.3-0.9-0.4-1.3-1.7-5.8-3.1-11.6-4.3-17.5 0-0.9 0-0.9-0.8-0.7-2.5 0.8-5 1.6-7.6 2.4-2.8 0.9-5.7 1.9-8.6 2.8-2 0.6-3.3 2.2-4 4.6-0.8 2.5-1.2 5.1-1.4 7.7-0.2 2.5-0.3 8.7-0.4 11.1 0 1.2 0 1.2 0.9 1.7q4.65 2.4 9.9 3.6c4.8 1.1 9.6 1.8 14.5 2 1.9 0.1 3.8 0.2 5.7 0.2s3.8-0.1 5.7-0.2c4.9-0.2 9.7-0.9 14.5-2 3.4-0.8 6.7-2 9.8-3.6 0.9-0.4 1-0.5 0.9-1.7" fill="#000000" data-fill-palette-color="accent"></path></svg></g></svg></g></svg></g><defs></defs></svg><rect width="395.52" height="89.36955278631545" fill="none" stroke="none" visibility="hidden"></rect></g></svg></g></svg>