<svg xmlns="http://www.w3.org/2000/svg" version="1.1" xmlns:xlink="http://www.w3.org/1999/xlink" xmlns:svgjs="http://svgjs.dev/svgjs" width="1500" height="1500" viewBox="0 0 1500 1500"><g transform="matrix(1,0,0,1,-0.7499999999998863,-0.7499999999998863)"><svg viewBox="0 0 280 280" data-background-color="#f9f7f4" preserveAspectRatio="xMidYMid meet" height="1500" width="1500" xmlns="http://www.w3.org/2000/svg" xmlns:xlink="http://www.w3.org/1999/xlink"><g id="tight-bounds" transform="matrix(1,0,0,1,0.13999999999998636,0.13999999999998636)"><svg viewBox="0 0 279.72 279.72" height="279.72" width="279.72"><g><svg viewBox="0 0 279.72 279.72" height="279.72" width="279.72"><g><svg viewBox="0 0 279.72 279.72" height="279.72" width="279.72"><g id="textblocktransform"><svg viewBox="0 0 279.72 279.72" height="279.72" width="279.72" id="textblock"><g><svg viewBox="0 0 279.72 279.72" height="279.72" width="279.72"><g transform="matrix(1,0,0,1,43.436444443668236,43.436444443668236)"><svg viewBox="0 0 192.84711111266355 192.84711111266355" height="192.84711111266355" width="192.84711111266355"><g id="icon-0"><circle r="96" cx="96.42355555633178" cy="96.42355555633178" fill="#ff5a00" data-fill-palette-color="accent"></circle><svg xmlns="http://www.w3.org/2000/svg" xml:space="preserve" viewBox="7.8677397260273665 5.000000000000027 84.2649269406393 89.99999999999999" x="28.92706666689953" y="28.92706666689953" height="134.99297777886449" width="134.99297777886449" class="icon-jxe-0" data-fill-palette-color="quaternary" id="jxe-0"><path fill-rule="evenodd" d="M70.916 23.4l-1.301 1.15q-0.25 0.25-0.55 0.25c-0.3 0-0.399-0.083-0.6-0.25a1.04 1.04 0 0 1-0.15-0.55q0-0.35 0.25-0.55l0.601-0.6h-25.25q-0.3 0-0.65 0.1l12.45 11.4q0.05 0.05 0.1 0.05h0.75q0.05 0 0.05-0.05l7.551-6.95a0.93 0.93 0 0 1 0.6-0.2q0.3 0 0.55 0.3 0.45 0.55-0.1 1.05l-6.4 5.85h20.2a2.7 2.7 0 0 0-0.35-0.85l-6.15-8.95q-0.5-0.7-1.55-1.2z m4.1-0.55l6.15 9q1 1.45 1 3.4-0.05 1.95-1.101 3.35l-21.6 28.7q-1.2 1.65-3 1.65-1.85 0-3.15-1.65l-21.55-28.7q-1-1.4-1.05-3.4t0.899-3.4l6.2-8.95q0.9-1.3 2.65-2.15 1.749-0.9 3.45-0.9h25.05q1.7 0 3.45 0.9 1.752 0.85 2.602 2.15M85.466 19q3.95 5.25 5.6 11.7 1.6 6.3 0.8 12.9a33.8 33.8 0 0 1-4.199 12.85q-1.201 1.95-3.25 4.7-2.451 3.05-3 3.95a48 48 0 0 0-2 3.3q-0.951 1.8-1.25 3.15l-0.051 0.15q-1.95 8.55 2.25 21.35 0.25 0.65-0.149 1.3-0.5 0.65-1.2 0.65h-44.45q-0.599 0-1-0.45-0.45-0.4-0.45-1-0.1-4.05-0.1-4.35l-0.35-3.05-5.301 0.65h-0.25l-0.5 0.1q-0.999 0.15-1.5 0.15h-0.1q-0.3 0.05-1 0.05-5.85 0-8.2-3.45-2.8-3.6-0.55-9.8l0.1-0.25v-0.05q-3.3-2.3-1.949-5l0.05-0.15-0.3-0.6-0.101-0.1q-0.8-1.75-0.1-4.1-4.25-1.85-4.851-3.85-0.95-2.15 1.75-6.65l5.5-8.55q-0.299-0.65-0.55-1.55l-0.05-0.3a8 8 0 0 1-0.15-1.95q0-0.3 0.101-0.45 2.05-15.45 11.45-25.2l0.25-0.25q4.2-4.3 10.1-6.75 5.1-2.1 11.75-2.75a64 64 0 0 1 4.8-0.35l4 0.05q2.8 0.1 5.101 0.5 7.4 1.15 13.449 4.7 5.8 3.25 9.85 8.75m-11.3-6.25q-5.65-3.25-12.45-4.35-2.05-0.35-4.851-0.5h-3.699q-2.2 0.1-4.65 0.3-6.45 0.651-10.9 2.55-5.4 2.3-9.3 6.35-0.05 0.1-0.25 0.2-8.65 9.15-10.55 23.65l-0.05 0.25q0 0.55 0.149 1v0.2l0.351 0.8q0.4 0.15 0.55 0.65 0.2 0.5 0.05 1-0.1 0.5-0.399 0.85l-0.301 0.4a1881 1881 0 0 0-5.55 8.55q-1.15 1.9-1.5 3.1-0.099 0.55 0 0.75l0.101 0.45 0.6 0.55q0.9 0.7 2.9 1.55l0.199 0.1q0.651 0.2 1.25 0.65 0.9 0.85 0.351 1.85l-0.351 0.45q-0.5 1.3-0.25 2.15l0.15 0.25q0.05 0.35 0.45 0.65 0.45 0.35 0.5 1 0 0.6-0.4 1l-0.1 0.15-0.2 0.5q-0.3 0.45 1.05 1.4l0.15 0.1q0.8 0.45 1.05 1.1 0.2 0.4 0.2 0.65 0 0.5-0.3 1.55l-0.101 0.15q-1.8 4.7 0.101 7.15l0.05 0.1q1.6 2.45 6.7 2.2l0.199-0.05 1.15-0.1h0.05l0.05-0.05 6.5-0.8q0.651 0 1.2 0.2 0.25 0.05 0.601 0.35 0.7 0.7 0.899 1.9a0.66 0.66 0 0 1 0 0.5l0.351 2.7q0.05 0.6 0.05 3.25h41.1q-3.8-12.55-1.75-21.3l0.101-0.25q0.45-1.7 1.449-3.5 0.6-1.25 2.051-3.55 1.4-2.05 3.199-4.15 2.2-2.85 2.95-4.3 3.1-5.45 3.95-11.8 0.7-6.05-0.8-11.85a29.8 29.8 0 0 0-5.05-10.7 29.8 29.8 0 0 0-9-7.95M67.815 25.2q0.15 0.2 0.15 0.5 0 0.35-0.2 0.55l-0.55 0.5a0.87 0.87 0 0 1-0.55 0.2 0.67 0.67 0 0 1-0.551-0.25q-0.45-0.55 0.051-1.1l0.55-0.45q0.55-0.5 1.1 0.05m11.201 10.75h-10.05l-10.9 28.15 20.55-27.35q0.25-0.35 0.4-0.8m-11.701 0H45.416l0.5 1.25q0.099 0.35 0 0.6-0.1 0.3-0.45 0.4l-0.25 0.05q-0.55 0-0.75-0.45l-0.7-1.85h-9.9q0.1 0.45 0.4 0.8l20.55 27.45-8.25-21.15q-0.15-0.3 0-0.6a0.6 0.6 0 0 1 0.4-0.4q0.35-0.15 0.6 0 0.3 0.15 0.4 0.45l8.5 21.6z m-26.95-11.4l-6.199 9a2.2 2.2 0 0 0-0.351 0.85h19.75l-11.95-10.85q-0.85 0.45-1.25 1m6.301 14.6l0.3 0.7q0.25 0.65-0.5 1l-0.25 0.05q-0.5 0-0.7-0.5l-0.25-0.7q-0.15-0.3 0-0.6t0.4-0.4q0.298-0.15 0.6 0 0.3 0.15 0.4 0.45" clip-rule="evenodd" fill="#ffffff" data-fill-palette-color="quaternary"></path></svg></g></svg></g><g id="text-0"><path d="M25.467 101.961l-2.572 7.822-19.268-6.334 2.277-6.926c0.813-2.474 1.887-4.208 3.221-5.202 1.334-0.993 2.865-1.206 4.592-0.638v0c1 0.329 1.779 0.837 2.338 1.524 0.55 0.692 0.847 1.538 0.892 2.539v0c0.597-0.919 1.345-1.53 2.243-1.832 0.896-0.296 1.867-0.271 2.913 0.072v0c1.883 0.619 3.103 1.682 3.657 3.189 0.555 1.507 0.457 3.435-0.293 5.786zM17.3 99.19l-1.07 3.254 4.617 1.518 1.003-3.049c0.275-0.838 0.295-1.544 0.059-2.118-0.236-0.574-0.701-0.975-1.396-1.204v0c-1.604-0.527-2.675 0.006-3.213 1.599zM8.749 99.984l4.442 1.46 0.797-2.425c0.327-1.015 0.378-1.797 0.156-2.345-0.221-0.555-0.685-0.948-1.393-1.181v0c-0.805-0.265-1.463-0.222-1.974 0.128-0.511 0.35-0.937 1.045-1.279 2.084v0z" fill="#fa9b68" data-fill-palette-color="primary"></path><path d="M34.525 81.807l-8.002-0.122-1.218 2.348 6.352 3.298-2.254 4.341-18.001-9.345 3.68-7.089c1.105-2.13 2.448-3.551 4.027-4.264 1.57-0.71 3.22-0.616 4.949 0.281v0c1.25 0.649 2.157 1.439 2.721 2.372 0.561 0.938 0.815 2.079 0.764 3.423v0l9.214 0.012 0.182 0.094zM17.014 79.729l4.941 2.566 1.427-2.749c0.425-0.819 0.528-1.551 0.309-2.196-0.213-0.642-0.705-1.163-1.476-1.564-0.777-0.403-1.497-0.507-2.16-0.312-0.654 0.192-1.192 0.694-1.615 1.507v0z" fill="#fa9b68" data-fill-palette-color="primary"></path><path d="M25.06 58.644l16.802 11.362-2.728 4.035-16.802-11.362z" fill="#fa9b68" data-fill-palette-color="primary"></path><path d="M32.561 49.461l12.522 10.774 5.551-6.451 2.853 2.454-8.741 10.159-15.375-13.228z" fill="#fa9b68" data-fill-palette-color="primary"></path><path d="M46.053 35.73l10.944 12.374 6.375-5.639 2.494 2.819-10.04 8.879-13.437-15.193z" fill="#fa9b68" data-fill-palette-color="primary"></path><path d="M61.075 23.837l11.803 16.495-3.962 2.834-11.802-16.495z" fill="#fa9b68" data-fill-palette-color="primary"></path><path d="M88.169 32.079l-2.792-2.812-5.949 3.095 0.709 3.896-4.63 2.409-2.767-21.424 4.075-2.12 16.012 14.533zM77.405 21.232l1.313 7.234 3.875-2.016z" fill="#fa9b68" data-fill-palette-color="primary"></path><path d="M104.681 4.241l6.436 19.234-4.609 1.542-10.822-9.689 4.006 11.97-4.639 1.553-6.436-19.235 4.638-1.552 10.813 9.693-4.006-11.971z" fill="#fa9b68" data-fill-palette-color="primary"></path><path d="M127.191 0.407l0.583 3.739-6.019 0.937 2.539 16.303-4.823 0.751-2.539-16.303-5.907 0.92-0.582-3.739z" fill="#fa9b68" data-fill-palette-color="primary"></path><path d="M142.717 0l6.406 0.544 3.311 14.442 5.691-13.676 6.416 0.545-1.718 20.21-4.894-0.416 0.401-4.721 1.301-9.614-6.105 13.96-3.229-0.274-3.671-14.802-0.352 9.706-0.401 4.72-4.874-0.414z" fill="#fa9b68" data-fill-palette-color="primary"></path><path d="M176.462 4.516l-4.598 19.754-4.744-1.104 4.598-19.754z" fill="#fa9b68" data-fill-palette-color="primary"></path><path d="M199.139 12.609l-7.118 18.992-4.551-1.705-2.301-14.343-4.43 11.82-4.58-1.716 7.118-18.993 4.58 1.717 2.292 14.338 4.429-11.82z" fill="#fa9b68" data-fill-palette-color="primary"></path><path d="M201.214 36.867l-5.773-3.351 10.182-17.541 5.649 3.279c1.555 0.903 2.746 2.064 3.573 3.485 0.827 1.421 1.214 2.973 1.162 4.658-0.044 1.682-0.524 3.32-1.442 4.914v0l-0.468 0.807c-0.933 1.608-2.109 2.85-3.527 3.727-1.415 0.886-2.948 1.328-4.599 1.325-1.648 0.007-3.234-0.427-4.757-1.303zM209.373 22.526l-1.419-0.823-6.394 11.014 1.472 0.855c1.212 0.704 2.394 0.813 3.545 0.326 1.151-0.486 2.221-1.58 3.21-3.282v0l0.437-0.754c0.985-1.697 1.401-3.163 1.249-4.397-0.153-1.235-0.853-2.214-2.1-2.939z" fill="#fa9b68" data-fill-palette-color="primary"></path><path d="M243.532 44.59l-2.589 2.759-4.441-4.168-11.292 12.029-3.558-3.34 11.291-12.03-4.359-4.091 2.59-2.759z" fill="#fa9b68" data-fill-palette-color="primary"></path><path d="M249.005 63.948l-2.847 2.269-4.792-6.015-3.778 3.01 5.662 7.105-2.943 2.346-8.71-10.931 15.862-12.64 8.723 10.946-2.959 2.358-5.675-7.121-3.336 2.659z" fill="#fa9b68" data-fill-palette-color="primary"></path><path d="M253.493 81.793l2.421 4.214c-1.258 0.651-2.528 0.944-3.812 0.878-1.284-0.067-2.497-0.497-3.639-1.292-1.142-0.794-2.115-1.891-2.919-3.29v0c-1.328-2.312-1.62-4.564-0.878-6.757 0.743-2.193 2.487-4.077 5.232-5.654v0l0.871-0.5c1.719-0.987 3.397-1.553 5.033-1.697 1.636-0.144 3.13 0.145 4.482 0.866 1.352 0.721 2.454 1.823 3.306 3.305v0c1.226 2.134 1.651 4.172 1.277 6.113-0.381 1.945-1.508 3.571-3.384 4.877v0l-2.426-4.224c1.056-0.646 1.672-1.358 1.847-2.137 0.179-0.773-0.031-1.681-0.631-2.724v0c-0.606-1.055-1.446-1.598-2.519-1.627-1.071-0.039-2.479 0.427-4.223 1.397v0l-1.245 0.715c-1.873 1.076-3.078 2.08-3.616 3.011-0.534 0.937-0.47 1.981 0.19 3.131v0c0.558 0.972 1.217 1.583 1.976 1.833 0.753 0.254 1.638 0.107 2.657-0.438z" fill="#fa9b68" data-fill-palette-color="primary"></path><path d="M276.093 101.096l-18.979 7.155-1.714-4.548 7.925-2.988-2.539-6.736-7.925 2.988-1.726-4.577 18.979-7.155 1.725 4.577-7.532 2.84 2.54 6.735 7.532-2.839z" fill="#fa9b68" data-fill-palette-color="primary"></path><path d="M8.68 142.444c0-1.302 1.056-2.358 2.357-2.357 1.302 0 2.358 1.056 2.358 2.357 0 1.302-1.056 2.358-2.358 2.358-1.302 0-2.358-1.056-2.357-2.358z" fill="#fa9b68" data-fill-palette-color="primary"></path><path d="M266.83 142.444c0-1.302 1.056-2.358 2.357-2.357 1.302 0 2.358 1.056 2.358 2.357 0 1.302-1.056 2.358-2.358 2.358-1.302 0-2.358-1.056-2.357-2.358z" fill="#fa9b68" data-fill-palette-color="primary"></path></g><g id="text-1"><path d="M29.875 178.711c0.361 1.14 0.481 2.207 0.358 3.2-0.121 0.999-0.462 1.993-1.024 2.981v0l-2.455-1.061c0.342-0.754 0.558-1.453 0.647-2.098 0.083-0.643 0.025-1.277-0.173-1.903v0c-0.227-0.717-0.628-1.214-1.204-1.491-0.575-0.277-1.221-0.301-1.938-0.074v0c-0.723 0.229-1.244 0.634-1.561 1.216-0.311 0.579-0.513 1.583-0.606 3.01v0c-0.144 1.831-0.54 3.273-1.19 4.325-0.645 1.043-1.781 1.823-3.41 2.34v0c-1.114 0.353-2.211 0.421-3.292 0.204-1.08-0.217-2.036-0.721-2.867-1.512-0.838-0.789-1.457-1.815-1.858-3.079v0c-0.415-1.31-0.541-2.521-0.377-3.635 0.157-1.111 0.533-2.198 1.128-3.261v0l2.57 1.186c-0.389 0.876-0.648 1.679-0.775 2.407-0.123 0.72-0.067 1.452 0.169 2.195v0c0.275 0.867 0.759 1.455 1.453 1.766 0.694 0.311 1.503 0.32 2.428 0.027v0c0.815-0.258 1.412-0.681 1.793-1.268 0.387-0.589 0.615-1.532 0.684-2.83v0c0.152-1.963 0.561-3.469 1.225-4.519 0.662-1.056 1.674-1.8 3.036-2.232v0c1.043-0.33 2.051-0.374 3.024-0.13 0.974 0.244 1.832 0.735 2.576 1.475 0.746 0.746 1.292 1.667 1.639 2.761z" fill="#fa9b68" data-fill-palette-color="primary"></path><path d="M34.498 192.008l4.545 9.146-2.698 0.906-2.688-5.409-5.28 2.624 2.345 4.72-2.507 1.246-2.345-4.72-5.547 2.757 2.862 5.757-2.562 1.273-4.545-9.146z" fill="#fa9b68" data-fill-palette-color="primary"></path><path d="M34.621 230.719l-2.406-3.296 4.568-7.83-0.212-0.289-0.858-1.177-6.709 4.898-2.23-3.056 16.613-12.129 2.866 3.926c2.922 4.003 2.757 7.192-0.495 9.566v0c-1.01 0.738-2.068 1.167-3.173 1.288-1.105 0.121-2.185-0.123-3.239-0.733v0zM38.662 217.524c0.689 0.944 1.415 1.464 2.178 1.558 0.758 0.099 1.625-0.209 2.603-0.922v0c0.911-0.665 1.418-1.374 1.52-2.126 0.103-0.752-0.213-1.631-0.946-2.636v0l-0.635-0.869-5.458 3.984z" fill="#fa9b68" data-fill-palette-color="primary"></path><path d="M62.554 229.815l2.69 2.558-17.622 11.628-3.434-3.264 10.593-18.313 2.786 2.65-9.336 14.908z" fill="#fa9b68" data-fill-palette-color="primary"></path><path d="M71.197 237.01l3.051 2.237-12.163 16.589-3.051-2.238z" fill="#fa9b68" data-fill-palette-color="primary"></path><path d="M88.278 246.817c0.932 0.489 1.675 1.075 2.228 1.759 0.546 0.68 0.987 1.51 1.323 2.489v0l-2.617 1.082c-0.232-0.662-0.51-1.205-0.836-1.631-0.325-0.425-0.745-0.773-1.259-1.043v0c-1.053-0.552-2.156-0.459-3.308 0.28-1.146 0.742-2.368 2.351-3.667 4.828v0c-1.283 2.446-1.907 4.357-1.872 5.733 0.044 1.374 0.61 2.346 1.7 2.918v0c0.545 0.286 1.077 0.426 1.597 0.421 0.52-0.005 1.173-0.095 1.959-0.269v0l0.636 2.695c-0.893 0.334-1.844 0.499-2.853 0.495-1.006 0.005-2.003-0.251-2.99-0.769v0c-2.058-1.08-3.272-2.739-3.641-4.978-0.372-2.233 0.272-4.933 1.932-8.099v0c1.095-2.089 2.299-3.684 3.611-4.787 1.321-1.106 2.668-1.739 4.041-1.899 1.376-0.166 2.715 0.092 4.016 0.775z" fill="#fa9b68" data-fill-palette-color="primary"></path><path d="M99.743 252.343l9.676 3.269-1.272 2.547-5.722-1.934-1.887 5.586 4.993 1.688-0.896 2.652-4.993-1.688-1.983 5.868 6.091 2.058-0.916 2.71-9.675-3.269z" fill="#fa9b68" data-fill-palette-color="primary"></path><path d="M122.44 257.685c1.181 0.188 2.188 0.559 3.021 1.114 0.839 0.556 1.575 1.306 2.207 2.25v0l-2.049 1.72c-0.521-0.643-1.049-1.15-1.586-1.518-0.538-0.362-1.131-0.595-1.779-0.698v0c-0.743-0.118-1.366 0.018-1.871 0.408-0.505 0.39-0.817 0.957-0.935 1.7v0c-0.119 0.749 0.01 1.396 0.388 1.941 0.378 0.538 1.185 1.168 2.42 1.89v0c1.573 0.949 2.684 1.949 3.333 3.001 0.644 1.044 0.832 2.409 0.564 4.097v0c-0.183 1.154-0.614 2.166-1.292 3.034-0.678 0.868-1.556 1.497-2.635 1.886-1.08 0.396-2.276 0.49-3.586 0.282v0c-1.357-0.216-2.497-0.646-3.418-1.291-0.923-0.638-1.727-1.461-2.411-2.47v0l2.212-1.766c0.609 0.741 1.211 1.331 1.805 1.771 0.589 0.433 1.268 0.71 2.038 0.833v0c0.898 0.143 1.641-0.027 2.23-0.508 0.589-0.481 0.959-1.201 1.111-2.159v0c0.134-0.844 0.024-1.567-0.33-2.171-0.353-0.61-1.095-1.236-2.224-1.879v0c-1.687-1.016-2.851-2.055-3.492-3.12-0.648-1.065-0.859-2.303-0.635-3.714v0c0.172-1.08 0.584-2.001 1.239-2.762 0.654-0.761 1.478-1.309 2.472-1.642 1.001-0.332 2.069-0.409 3.203-0.229z" fill="#fa9b68" data-fill-palette-color="primary"></path><path d="M152.963 258.763c2.467-0.267 4.405 0.077 5.815 1.031 1.41 0.954 2.23 2.495 2.461 4.623v0c0.246 2.27-0.206 4.038-1.355 5.303-1.15 1.259-2.89 2.015-5.221 2.267v0l-1.183 0.128 0.78 7.198-3.762 0.407-2.214-20.45zM154.156 269.206c1.285-0.139 2.18-0.539 2.686-1.198 0.507-0.653 0.682-1.7 0.526-3.141v0c-0.141-1.298-0.528-2.212-1.163-2.742-0.635-0.529-1.584-0.726-2.849-0.589v0l-1.009 0.11 0.83 7.666z" fill="#fa9b68" data-fill-palette-color="primary"></path><path d="M176.262 253.709l3.561-1.05 1.251 21.076-4.545 1.339-10.555-18.333 3.688-1.087 8.237 15.542z" fill="#fa9b68" data-fill-palette-color="primary"></path><path d="M184.991 250.627l11.564-5.575 0.913 2.861-3.806 1.835 7.641 15.85-3.408 1.643-7.641-15.85-3.972 1.915z" fill="#fa9b68" data-fill-palette-color="primary"></path><path d="M213.184 254.058c0.562-0.365 1.141-0.472 1.736-0.321 0.599 0.157 1.072 0.502 1.418 1.036v0c0.346 0.533 0.469 1.105 0.368 1.717-0.1 0.611-0.431 1.099-0.993 1.464v0c-0.55 0.357-1.131 0.461-1.742 0.311-0.605-0.153-1.08-0.497-1.426-1.03v0c-0.346-0.533-0.466-1.107-0.36-1.722 0.116-0.613 0.449-1.098 0.999-1.455z" fill="#fa9b68" data-fill-palette-color="primary"></path><path d="M221.9 225.962l2.611-2.739 12.625 12.036 4.578-4.802 1.98 2.455-6.906 7.243z" fill="#fa9b68" data-fill-palette-color="primary"></path><path d="M232.656 213.817l7.231-10.608 2.221 2.022-2.38 3.491 14.54 9.91-2.131 3.127-14.54-9.911-2.483 3.644z" fill="#fa9b68" data-fill-palette-color="primary"></path><path d="M245.26 192.72c0.733-1.567 1.604-2.808 2.614-3.724 1.006-0.925 2.356-1.423 4.048-1.491 1.689-0.078 3.775 0.464 6.258 1.625v0c3.505 1.639 5.622 3.478 6.351 5.517 0.735 2.042 0.578 4.187-0.473 6.435v0l-2.107 4.505-18.633-8.715zM248.058 193.395l-0.582 1.245 13.514 6.32 0.591-1.263c0.379-0.811 0.509-1.581 0.389-2.308-0.123-0.722-0.612-1.475-1.467-2.26-0.862-0.788-2.19-1.602-3.986-2.442v0c-1.839-0.86-3.32-1.349-4.443-1.466-1.129-0.12-1.987 0.014-2.576 0.402-0.592 0.395-1.072 0.985-1.44 1.772z" fill="#fa9b68" data-fill-palette-color="primary"></path><path d="M267.619 180.148c0.191-0.642 0.562-1.099 1.113-1.371 0.558-0.269 1.141-0.313 1.751-0.132v0c0.609 0.181 1.074 0.537 1.394 1.067 0.32 0.53 0.385 1.116 0.194 1.759v0c-0.187 0.629-0.561 1.085-1.123 1.367-0.56 0.276-1.144 0.323-1.753 0.142v0c-0.609-0.181-1.073-0.54-1.392-1.077-0.31-0.541-0.371-1.127-0.184-1.755z" fill="#fa9b68" data-fill-palette-color="primary"></path></g></svg></g></svg></g></svg></g></svg></g><defs></defs></svg><rect width="279.72" height="279.72" fill="none" stroke="none" visibility="hidden"></rect></g></svg></g></svg>